<?xml version="1.0" standalone="no"?>
<!DOCTYPE svg PUBLIC "-//W3C//DTD SVG 20010904//EN"
 "http://www.w3.org/TR/2001/REC-SVG-20010904/DTD/svg10.dtd">
<svg version="1.0" xmlns="http://www.w3.org/2000/svg"
 width="512.000000pt" height="512.000000pt" viewBox="0 0 512.000000 512.000000"
 preserveAspectRatio="xMidYMid meet">

<g transform="translate(0.000000,512.000000) scale(0.100000,-0.100000)"
fill="#000000" stroke="none">
<path d="M2250 4690 l0 -90 -732 0 -733 0 0 -115 0 -115 53 0 c35 0 52 -4 52
-13 0 -7 -199 -447 -442 -977 l-443 -965 1 -65 c3 -157 80 -332 206 -465 129
-137 278 -224 468 -276 97 -27 329 -37 438 -19 419 67 740 372 771 733 l7 79
-443 971 c-244 534 -443 977 -443 984 0 10 123 13 620 13 l620 0 0 -1713 0
-1712 -82 -19 c-280 -63 -547 -209 -685 -375 -54 -65 -123 -177 -123 -199 0
-9 298 -12 1193 -12 657 0 1196 3 1200 6 3 4 -3 25 -15 48 -129 255 -428 455
-798 534 l-85 19 -3 1711 -2 1712 629 0 c347 0 632 -3 635 -8 2 -4 -196 -446
-440 -982 -418 -916 -444 -977 -444 -1030 0 -106 48 -254 117 -357 140 -212
380 -359 655 -403 109 -18 341 -8 438 19 376 102 646 389 676 720 l6 66 -446
979 c-245 538 -443 982 -440 987 3 5 21 9 40 9 l34 0 0 115 0 115 -730 0 -730
0 0 90 0 90 -300 0 -300 0 0 -90z m2344 -1376 c223 -490 406 -894 406 -898 0
-3 -371 -6 -825 -6 -469 0 -825 4 -825 9 0 5 178 400 396 877 218 478 403 885
411 904 11 25 17 30 23 20 4 -8 191 -416 414 -906z m-3228 9 c225 -493 411
-900 412 -905 2 -4 -371 -8 -828 -8 -467 0 -830 4 -828 9 25 66 823 1801 828
1801 4 0 191 -403 416 -897z"/>
</g>
</svg>
